<svg aria-roledescription="er" viewBox="0 0 369.4244079589844 342" style="max-width: 369.424px; background-color: white;" xmlns:xlink="http://www.w3.org/1999/xlink" xmlns="http://www.w3.org/2000/svg" width="100%" id="mermaid-0"><style>#mermaid-0{font-family:"trebuchet ms",verdana,arial,sans-serif;font-size:16px;fill:#000000;}#mermaid-0 .error-icon{fill:#552222;}#mermaid-0 .error-text{fill:#552222;stroke:#552222;}#mermaid-0 .edge-thickness-normal{stroke-width:2px;}#mermaid-0 .edge-thickness-thick{stroke-width:3.5px;}#mermaid-0 .edge-pattern-solid{stroke-dasharray:0;}#mermaid-0 .edge-pattern-dashed{stroke-dasharray:3;}#mermaid-0 .edge-pattern-dotted{stroke-dasharray:2;}#mermaid-0 .marker{fill:#000000;stroke:#000000;}#mermaid-0 .marker.cross{stroke:#000000;}#mermaid-0 svg{font-family:"trebuchet ms",verdana,arial,sans-serif;font-size:16px;}#mermaid-0 .entityBox{fill:#cde498;stroke:#13540c;}#mermaid-0 .attributeBoxOdd{fill:#ffffff;stroke:#13540c;}#mermaid-0 .attributeBoxEven{fill:#f2f2f2;stroke:#13540c;}#mermaid-0 .relationshipLabelBox{fill:hsl(78.1578947368, 58.4615384615%, 84.5098039216%);opacity:0.7;background-color:hsl(78.1578947368, 58.4615384615%, 84.5098039216%);}#mermaid-0 .relationshipLabelBox rect{opacity:0.5;}#mermaid-0 .relationshipLine{stroke:#000000;}#mermaid-0 .entityTitleText{text-anchor:middle;font-size:18px;fill:#000000;}#mermaid-0 :root{--mermaid-font-family:"trebuchet ms",verdana,arial,sans-serif;}</style><g/><defs><marker orient="auto" markerHeight="18" markerWidth="18" refY="9" refX="0" id="ONLY_ONE_START"><path d="M9,0 L9,18 M15,0 L15,18" fill="none" stroke="gray"/></marker></defs><defs><marker orient="auto" markerHeight="18" markerWidth="18" refY="9" refX="18" id="ONLY_ONE_END"><path d="M3,0 L3,18 M9,0 L9,18" fill="none" stroke="gray"/></marker></defs><defs><marker orient="auto" markerHeight="18" markerWidth="30" refY="9" refX="0" id="ZERO_OR_ONE_START"><circle r="6" cy="9" cx="21" fill="white" stroke="gray"/><path d="M9,0 L9,18" fill="none" stroke="gray"/></marker></defs><defs><marker orient="auto" markerHeight="18" markerWidth="30" refY="9" refX="30" id="ZERO_OR_ONE_END"><circle r="6" cy="9" cx="9" fill="white" stroke="gray"/><path d="M21,0 L21,18" fill="none" stroke="gray"/></marker></defs><defs><marker orient="auto" markerHeight="36" markerWidth="45" refY="18" refX="18" id="ONE_OR_MORE_START"><path d="M0,18 Q 18,0 36,18 Q 18,36 0,18 M42,9 L42,27" fill="none" stroke="gray"/></marker></defs><defs><marker orient="auto" markerHeight="36" markerWidth="45" refY="18" refX="27" id="ONE_OR_MORE_END"><path d="M3,9 L3,27 M9,18 Q27,0 45,18 Q27,36 9,18" fill="none" stroke="gray"/></marker></defs><defs><marker orient="auto" markerHeight="36" markerWidth="57" refY="18" refX="18" id="ZERO_OR_MORE_START"><circle r="6" cy="18" cx="48" fill="white" stroke="gray"/><path d="M0,18 Q18,0 36,18 Q18,36 0,18" fill="none" stroke="gray"/></marker></defs><defs><marker orient="auto" markerHeight="36" markerWidth="57" refY="18" refX="39" id="ZERO_OR_MORE_END"><circle r="6" cy="18" cx="9" fill="white" stroke="gray"/><path d="M21,18 Q39,0 57,18 Q39,36 21,18" fill="none" stroke="gray"/></marker></defs><path style="stroke: gray; fill: none;" marker-start="url(#ZERO_OR_MORE_START)" marker-end="url(#ONLY_ONE_END)" d="M127.99577273962632,132L119.55582761464628,140.33333333333334C111.11588248966625,148.66666666666666,94.23599223970616,165.33333333333334,85.79604711472614,182C77.3561019897461,198.66666666666666,77.3561019897461,215.33333333333334,77.3561019897461,223.66666666666666L77.3561019897461,232" class="er relationshipLine"/><path style="stroke: gray; fill: none;" marker-start="url(#ZERO_OR_MORE_START)" marker-end="url(#ZERO_OR_ONE_END)" d="M241.42863521935806,132L249.86858034433808,140.33333333333334C258.3085254693181,148.66666666666666,275.1884157192782,165.33333333333334,283.6283608442582,182C292.0683059692383,198.66666666666666,292.0683059692383,215.33333333333334,292.0683059692383,223.66666666666666L292.0683059692383,232" class="er relationshipLine"/><g transform="translate(20,232 )" id="entity-clients-ab74386b-31cb-4eba-be0e-78c007c27210"><rect height="90" width="114.71220397949219" y="0" x="0" class="er entityBox"/><text style="dominant-baseline: middle; text-anchor: middle; font-size: 12px;" transform="translate(57.356101989746094,12)" y="0" x="0" id="text-entity-clients-ab74386b-31cb-4eba-be0e-78c007c27210" class="er entityLabel">clients</text><rect height="22" width="37.39605712890625" y="24" x="0" class="er attributeBoxOdd"/><text style="dominant-baseline: middle; font-size: 10.2px;" transform="translate(5,35)" y="0" x="0" id="text-entity-clients-ab74386b-31cb-4eba-be0e-78c007c27210-attr-1-type" class="er entityLabel">String</text><rect height="22" width="54.62846374511719" y="24" x="37.39605712890625" class="er attributeBoxOdd"/><text style="dominant-baseline: middle; font-size: 10.2px;" transform="translate(42.39605712890625,35)" y="0" x="0" id="text-entity-clients-ab74386b-31cb-4eba-be0e-78c007c27210-attr-1-name" class="er entityLabel">id</text><rect height="22" width="22.68768310546875" y="24" x="92.02452087402344" class="er attributeBoxOdd"/><text style="dominant-baseline: middle; font-size: 10.2px;" transform="translate(97.02452087402344,35)" y="0" x="0" id="text-entity-clients-ab74386b-31cb-4eba-be0e-78c007c27210-attr-1-key" class="er entityLabel">PK</text><rect height="22" width="37.39605712890625" y="46" x="0" class="er attributeBoxEven"/><text style="dominant-baseline: middle; font-size: 10.2px;" transform="translate(5,57)" y="0" x="0" id="text-entity-clients-ab74386b-31cb-4eba-be0e-78c007c27210-attr-2-type" class="er entityLabel">String</text><rect height="22" width="54.62846374511719" y="46" x="37.39605712890625" class="er attributeBoxEven"/><text style="dominant-baseline: middle; font-size: 10.2px;" transform="translate(42.39605712890625,57)" y="0" x="0" id="text-entity-clients-ab74386b-31cb-4eba-be0e-78c007c27210-attr-2-name" class="er entityLabel">username</text><rect height="22" width="22.68768310546875" y="46" x="92.02452087402344" class="er attributeBoxEven"/><text style="dominant-baseline: middle; font-size: 10.2px;" transform="translate(97.02452087402344,57)" y="0" x="0" id="text-entity-clients-ab74386b-31cb-4eba-be0e-78c007c27210-attr-2-key" class="er entityLabel"/><rect height="22" width="37.39605712890625" y="68" x="0" class="er attributeBoxOdd"/><text style="dominant-baseline: middle; font-size: 10.2px;" transform="translate(5,79)" y="0" x="0" id="text-entity-clients-ab74386b-31cb-4eba-be0e-78c007c27210-attr-3-type" class="er entityLabel">String</text><rect height="22" width="54.62846374511719" y="68" x="37.39605712890625" class="er attributeBoxOdd"/><text style="dominant-baseline: middle; font-size: 10.2px;" transform="translate(42.39605712890625,79)" y="0" x="0" id="text-entity-clients-ab74386b-31cb-4eba-be0e-78c007c27210-attr-3-name" class="er entityLabel">password</text><rect height="22" width="22.68768310546875" y="68" x="92.02452087402344" class="er attributeBoxOdd"/><text style="dominant-baseline: middle; font-size: 10.2px;" transform="translate(97.02452087402344,79)" y="0" x="0" id="text-entity-clients-ab74386b-31cb-4eba-be0e-78c007c27210-attr-3-key" class="er entityLabel"/></g><g transform="translate(234.7122039794922,232 )" id="entity-deliverymen-7c140aa2-ec60-4de4-ad7e-f7db4d5eaa55"><rect height="90" width="114.71220397949219" y="0" x="0" class="er entityBox"/><text style="dominant-baseline: middle; text-anchor: middle; font-size: 12px;" transform="translate(57.356101989746094,12)" y="0" x="0" id="text-entity-deliverymen-7c140aa2-ec60-4de4-ad7e-f7db4d5eaa55" class="er entityLabel">deliverymen</text><rect height="22" width="37.39605712890625" y="24" x="0" class="er attributeBoxOdd"/><text style="dominant-baseline: middle; font-size: 10.2px;" transform="translate(5,35)" y="0" x="0" id="text-entity-deliverymen-7c140aa2-ec60-4de4-ad7e-f7db4d5eaa55-attr-1-type" class="er entityLabel">String</text><rect height="22" width="54.62846374511719" y="24" x="37.39605712890625" class="er attributeBoxOdd"/><text style="dominant-baseline: middle; font-size: 10.2px;" transform="translate(42.39605712890625,35)" y="0" x="0" id="text-entity-deliverymen-7c140aa2-ec60-4de4-ad7e-f7db4d5eaa55-attr-1-name" class="er entityLabel">id</text><rect height="22" width="22.68768310546875" y="24" x="92.02452087402344" class="er attributeBoxOdd"/><text style="dominant-baseline: middle; font-size: 10.2px;" transform="translate(97.02452087402344,35)" y="0" x="0" id="text-entity-deliverymen-7c140aa2-ec60-4de4-ad7e-f7db4d5eaa55-attr-1-key" class="er entityLabel">PK</text><rect height="22" width="37.39605712890625" y="46" x="0" class="er attributeBoxEven"/><text style="dominant-baseline: middle; font-size: 10.2px;" transform="translate(5,57)" y="0" x="0" id="text-entity-deliverymen-7c140aa2-ec60-4de4-ad7e-f7db4d5eaa55-attr-2-type" class="er entityLabel">String</text><rect height="22" width="54.62846374511719" y="46" x="37.39605712890625" class="er attributeBoxEven"/><text style="dominant-baseline: middle; font-size: 10.2px;" transform="translate(42.39605712890625,57)" y="0" x="0" id="text-entity-deliverymen-7c140aa2-ec60-4de4-ad7e-f7db4d5eaa55-attr-2-name" class="er entityLabel">username</text><rect height="22" width="22.68768310546875" y="46" x="92.02452087402344" class="er attributeBoxEven"/><text style="dominant-baseline: middle; font-size: 10.2px;" transform="translate(97.02452087402344,57)" y="0" x="0" id="text-entity-deliverymen-7c140aa2-ec60-4de4-ad7e-f7db4d5eaa55-attr-2-key" class="er entityLabel"/><rect height="22" width="37.39605712890625" y="68" x="0" class="er attributeBoxOdd"/><text style="dominant-baseline: middle; font-size: 10.2px;" transform="translate(5,79)" y="0" x="0" id="text-entity-deliverymen-7c140aa2-ec60-4de4-ad7e-f7db4d5eaa55-attr-3-type" class="er entityLabel">String</text><rect height="22" width="54.62846374511719" y="68" x="37.39605712890625" class="er attributeBoxOdd"/><text style="dominant-baseline: middle; font-size: 10.2px;" transform="translate(42.39605712890625,79)" y="0" x="0" id="text-entity-deliverymen-7c140aa2-ec60-4de4-ad7e-f7db4d5eaa55-attr-3-name" class="er entityLabel">password</text><rect height="22" width="22.68768310546875" y="68" x="92.02452087402344" class="er attributeBoxOdd"/><text style="dominant-baseline: middle; font-size: 10.2px;" transform="translate(97.02452087402344,79)" y="0" x="0" id="text-entity-deliverymen-7c140aa2-ec60-4de4-ad7e-f7db4d5eaa55-attr-3-key" class="er entityLabel"/></g><g transform="translate(91.84901428222656,20 )" id="entity-deliveries-677c5e4a-a2a2-4ea0-abeb-417c17dad744"><rect height="112" width="185.72637939453125" y="0" x="0" class="er entityBox"/><text style="dominant-baseline: middle; text-anchor: middle; font-size: 12px;" transform="translate(92.86318969726562,12)" y="0" x="0" id="text-entity-deliveries-677c5e4a-a2a2-4ea0-abeb-417c17dad744" class="er entityLabel">deliveries</text><rect height="22" width="54.095550537109375" y="24" x="0" class="er attributeBoxOdd"/><text style="dominant-baseline: middle; font-size: 10.2px;" transform="translate(5,35)" y="0" x="0" id="text-entity-deliveries-677c5e4a-a2a2-4ea0-abeb-417c17dad744-attr-1-type" class="er entityLabel">String</text><rect height="22" width="61.73060607910156" y="24" x="54.095550537109375" class="er attributeBoxOdd"/><text style="dominant-baseline: middle; font-size: 10.2px;" transform="translate(59.095550537109375,35)" y="0" x="0" id="text-entity-deliveries-677c5e4a-a2a2-4ea0-abeb-417c17dad744-attr-1-name" class="er entityLabel">id</text><rect height="22" width="22.68768310546875" y="24" x="115.82615661621094" class="er attributeBoxOdd"/><text style="dominant-baseline: middle; font-size: 10.2px;" transform="translate(120.82615661621094,35)" y="0" x="0" id="text-entity-deliveries-677c5e4a-a2a2-4ea0-abeb-417c17dad744-attr-1-key" class="er entityLabel">PK</text><rect height="22" width="47.21253967285156" y="24" x="138.5138397216797" class="er attributeBoxOdd"/><text style="dominant-baseline: middle; font-size: 10.2px;" transform="translate(143.5138397216797,35)" y="0" x="0" id="text-entity-deliveries-677c5e4a-a2a2-4ea0-abeb-417c17dad744-attr-1-comment" class="er entityLabel"/><rect height="22" width="54.095550537109375" y="46" x="0" class="er attributeBoxEven"/><text style="dominant-baseline: middle; font-size: 10.2px;" transform="translate(5,57)" y="0" x="0" id="text-entity-deliveries-677c5e4a-a2a2-4ea0-abeb-417c17dad744-attr-2-type" class="er entityLabel">String</text><rect height="22" width="61.73060607910156" y="46" x="54.095550537109375" class="er attributeBoxEven"/><text style="dominant-baseline: middle; font-size: 10.2px;" transform="translate(59.095550537109375,57)" y="0" x="0" id="text-entity-deliveries-677c5e4a-a2a2-4ea0-abeb-417c17dad744-attr-2-name" class="er entityLabel">item_name</text><rect height="22" width="22.68768310546875" y="46" x="115.82615661621094" class="er attributeBoxEven"/><text style="dominant-baseline: middle; font-size: 10.2px;" transform="translate(120.82615661621094,57)" y="0" x="0" id="text-entity-deliveries-677c5e4a-a2a2-4ea0-abeb-417c17dad744-attr-2-key" class="er entityLabel"/><rect height="22" width="47.21253967285156" y="46" x="138.5138397216797" class="er attributeBoxEven"/><text style="dominant-baseline: middle; font-size: 10.2px;" transform="translate(143.5138397216797,57)" y="0" x="0" id="text-entity-deliveries-677c5e4a-a2a2-4ea0-abeb-417c17dad744-attr-2-comment" class="er entityLabel"/><rect height="22" width="54.095550537109375" y="68" x="0" class="er attributeBoxOdd"/><text style="dominant-baseline: middle; font-size: 10.2px;" transform="translate(5,79)" y="0" x="0" id="text-entity-deliveries-677c5e4a-a2a2-4ea0-abeb-417c17dad744-attr-3-type" class="er entityLabel">DateTime</text><rect height="22" width="61.73060607910156" y="68" x="54.095550537109375" class="er attributeBoxOdd"/><text style="dominant-baseline: middle; font-size: 10.2px;" transform="translate(59.095550537109375,79)" y="0" x="0" id="text-entity-deliveries-677c5e4a-a2a2-4ea0-abeb-417c17dad744-attr-3-name" class="er entityLabel">created_at</text><rect height="22" width="22.68768310546875" y="68" x="115.82615661621094" class="er attributeBoxOdd"/><text style="dominant-baseline: middle; font-size: 10.2px;" transform="translate(120.82615661621094,79)" y="0" x="0" id="text-entity-deliveries-677c5e4a-a2a2-4ea0-abeb-417c17dad744-attr-3-key" class="er entityLabel"/><rect height="22" width="47.21253967285156" y="68" x="138.5138397216797" class="er attributeBoxOdd"/><text style="dominant-baseline: middle; font-size: 10.2px;" transform="translate(143.5138397216797,79)" y="0" x="0" id="text-entity-deliveries-677c5e4a-a2a2-4ea0-abeb-417c17dad744-attr-3-comment" class="er entityLabel"/><rect height="22" width="54.095550537109375" y="90" x="0" class="er attributeBoxEven"/><text style="dominant-baseline: middle; font-size: 10.2px;" transform="translate(5,101)" y="0" x="0" id="text-entity-deliveries-677c5e4a-a2a2-4ea0-abeb-417c17dad744-attr-4-type" class="er entityLabel">DateTime</text><rect height="22" width="61.73060607910156" y="90" x="54.095550537109375" class="er attributeBoxEven"/><text style="dominant-baseline: middle; font-size: 10.2px;" transform="translate(59.095550537109375,101)" y="0" x="0" id="text-entity-deliveries-677c5e4a-a2a2-4ea0-abeb-417c17dad744-attr-4-name" class="er entityLabel">end_date</text><rect height="22" width="22.68768310546875" y="90" x="115.82615661621094" class="er attributeBoxEven"/><text style="dominant-baseline: middle; font-size: 10.2px;" transform="translate(120.82615661621094,101)" y="0" x="0" id="text-entity-deliveries-677c5e4a-a2a2-4ea0-abeb-417c17dad744-attr-4-key" class="er entityLabel"/><rect height="22" width="47.21253967285156" y="90" x="138.5138397216797" class="er attributeBoxEven"/><text style="dominant-baseline: middle; font-size: 10.2px;" transform="translate(143.5138397216797,101)" y="0" x="0" id="text-entity-deliveries-677c5e4a-a2a2-4ea0-abeb-417c17dad744-attr-4-comment" class="er entityLabel">nullable</text></g><rect height="14" width="31.00390625" y="168.72032165527344" x="73.8504638671875" class="er relationshipLabelBox"/><text style="text-anchor: middle; dominant-baseline: middle; font-size: 12px;" y="175.72032165527344" x="89.3524169921875" id="rel1" class="er relationshipLabel">client</text><rect height="14" width="66.4609375" y="168.72030639648438" x="246.84152221679688" class="er relationshipLabelBox"/><text style="text-anchor: middle; dominant-baseline: middle; font-size: 12px;" y="175.72030639648438" x="280.0719909667969" id="rel2" class="er relationshipLabel">deliveryman</text></svg>